<?xml version="1.0" encoding="utf-8"?>
<!-- Generator: Adobe Illustrator 28.3.0, SVG Export Plug-In . SVG Version: 6.00 Build 0)  -->
<svg version="1.1" id="Capa_1" xmlns="http://www.w3.org/2000/svg" xmlns:xlink="http://www.w3.org/1999/xlink" x="0px" y="0px"
	 viewBox="0 0 70 77.1" style="enable-background:new 0 0 70 77.1;" xml:space="preserve">
<style type="text/css">
	.st0{fill:#F0CE00;}
</style>
<path class="st0" d="M62.9,6.8C59.5,8.2,55.9,9,52.3,9l0,0C51.7,9,51,9,50.5,9C44.3,8.5,38.7,5.5,35,0.6L34.6,0l0,0l-0.4,0.6
	C30.5,5.5,24.8,8.5,18.7,9c-4.2,0.2-8.5-0.6-12.4-2.2L6,6.7v41.6c0,6.3,2.6,12.4,7.2,16.7c3.8,3.6,8.4,6.2,13.5,7.6
	c2.8,0.7,5.4,2.2,7.5,4.2l0.4,0.4l0,0l0.4-0.3c2.1-2,4.7-3.4,7.5-4.2c5-1.4,9.7-4,13.5-7.6c4.6-4.3,7.2-10.3,7.2-16.7V6.7L62.9,6.8z
	"/>
<path d="M52.1,10.8c-0.6,0-1.2,0-1.4,0c-6.1-0.5-11.8-3.1-16.1-7.4c-3.9,4.3-9.3,7-15.1,7.4C18.4,10.9,17,11,15.5,11
	c-2.7-0.1-5.3-0.6-7.8-1.4v38.3C7.8,53,9.7,58,13,61.9V33.6h6.4v33.9c1.9,1.2,3.8,2.1,5.9,2.8V33.6h6.4v38.9c1,0.5,2,1.1,2.9,1.9
	c0.9-0.8,1.9-1.4,3-1.9V33.6H44v36.6c2.1-0.7,4-1.7,5.9-2.9V33.6h6.4v28.2c3.3-3.9,5.1-8.9,5.2-14V9.5
	C58.4,10.3,55.2,10.7,52.1,10.8z M17.1,29.2L15,27.7l-2.2,1.5l0.8-2.5l-2.2-1.6h2.7l0.9-2.5l0.8,2.5h2.6l-2.1,1.5L17.1,29.2z
	 M16.7,21.8l0.8-2.5l-2.1-1.6h2.7l0.8-2.5l0.8,2.5h2.7l-2.2,1.5l0.8,2.5l-2.1-1.5L16.7,21.8z M24.1,26.7l0.8,2.5l-2.1-1.5l-2.1,1.5
	l0.8-2.5l-2.1-1.6H22l0.8-2.5l0.8,2.5h2.7L24.1,26.7z M24.6,21.7l0.8-2.5l-2.1-1.5h2.7l0.9-2.5l0.8,2.5h2.7l-2.1,1.5l0.8,2.5
	l-2.1-1.5L24.6,21.7z M32.8,29.2l-2.1-1.5l-2.2,1.5l0.8-2.5l-2.1-1.5h2.6l0.8-2.5l0.8,2.5h2.7L32,26.7L32.8,29.2z M34.6,20.2
	l-2.1,1.5l0.8-2.5l-2.1-1.5h2.6l0.9-2.5l0.8,2.5h2.7l-2.2,1.5l0.8,2.5L34.6,20.2z M40.6,29.2l-2.1-1.5l-2.1,1.5l0.8-2.5L35,25.1h2.7
	l0.8-2.5l0.8,2.5H42l-2.1,1.5L40.6,29.2z M40.3,21.8l0.8-2.5L39,17.7h2.7l0.9-2.5l0.8,2.5H46l-2.1,1.5l0.8,2.5l-2.1-1.5L40.3,21.8z
	 M48.5,29.2l-2.1-1.5l-2.2,1.5l0.8-2.5l-2.1-1.6h2.7l0.8-2.5l0.8,2.5h2.6l-2.1,1.5L48.5,29.2z M48.2,21.8l0.8-2.5l-2.1-1.6h2.7
	l0.8-2.5l0.8,2.5h2.7l-2.2,1.5l0.8,2.5l-2.1-1.5L48.2,21.8z M56.4,29.2l-2.1-1.5l-2.1,1.5l0.8-2.5l-2.1-1.6h2.7l0.8-2.5l0.8,2.5h2.7
	l-2.1,1.5L56.4,29.2z"/>
</svg>
